<svg xmlns="http://www.w3.org/2000/svg" viewBox="0 0 32 40" fill="current" x="0px" y="0px"><path d="M8 23C8 22.4477 8.44772 22 9 22H24V24H9C8.44772 24 8 23.5523 8 23Z" fill="#808080"/><path fill-rule="evenodd" clip-rule="evenodd" d="M9 2C6.23858 2 4 4.23858 4 7V23C4 25.7614 6.23858 28 9 28H25.9524C27.0833 28 28 27.0833 28 25.9524V19.09C28.0587 18.6902 28 18.2 28 18.2V5C28 3.34315 26.6569 2 25 2H9ZM26 20H9C8.41981 20.0341 7.94185 20.1713 7.54811 20.3741C6.62494 20.8856 6 21.8698 6 23C6 24.6569 7.34315 26 9 26H25.9524C25.9787 26 26 25.9787 26 25.9524V20Z" fill="#808080"/><text x="0" y="47" fill="#000000" font-size="5px" font-weight="bold" font-family="'Helvetica Neue', Helvetica, Arial-Unicode, Arial, Sans-serif">Created by Braja Omar Justico</text><text x="0" y="52" fill="#000000" font-size="5px" font-weight="bold" font-family="'Helvetica Neue', Helvetica, Arial-Unicode, Arial, Sans-serif">from the Noun Project</text></svg>